<svg width="550" height="250" xmlns="http://www.w3.org/2000/svg" xml:space="preserve" version="1.1">
 <title>logo</title>
 <desc>Created with Fabric.js 5.2.4</desc>

 <g>
  <title>Layer 1</title>
  <g id="6a5059c7-dc64-4302-997b-f13e07c44352" transform="matrix(0 0 0 0 0 0)"/>
  <g id="6ed5c14c-4a59-4225-a357-bd1e39e0fba8" transform="matrix(1 0 0 1 450 150)">
   <rect id="svg_2" fill-rule=" nonzero" fill=" rgb(255,255,255)" stroke-miterlimit="4" stroke-linejoin=" miter" stroke-dashoffset="0" stroke-linecap=" butt" stroke-dasharray=" none" stroke=" none" height="300" width="900" y="-499" x="-529" vector-effect="non-scaling-stroke"/>
  </g>
  <g id="svg_3" transform="matrix(1.43 1.44 -1.43 1.44 353.75 215.01)">
   <path id="svg_4" fill-rule=" nonzero" fill=" rgb(118,91,65)" stroke-miterlimit="4" stroke-linejoin=" miter" stroke-dashoffset="0" stroke-dasharray=" none" stroke-width="3" stroke=" rgb(133,107,71)" stroke-linecap=" butt" d="m21.36276,-3.11276l-80.75,0l0,-80.75l80.75,0l0,80.75zm-78.75,-2l76.75,0l0,-76.75l-76.75,0l0,76.75z" vector-effect="non-scaling-stroke"/>
  </g>
  <g id="svg_5" transform="matrix(1.43 1.44 -1.43 1.44 580.9 214.27)">
   <path id="svg_6" fill-rule=" nonzero" fill=" rgb(118,91,65)" stroke-miterlimit="4" stroke-linejoin=" miter" stroke-dashoffset="0" stroke-dasharray=" none" stroke-width="3" stroke=" rgb(133,107,71)" stroke-linecap=" butt" d="m-138.77952,157.72397l-80.75,0l0,-80.75l80.75,0l0,80.75zm-78.75,-2l76.75,0l0,-76.75l-76.75,0l0,76.75z" vector-effect="non-scaling-stroke"/>
  </g>
  <g id="svg_7" transform="matrix(1.43 1.44 -1.43 1.44 466.11 216.44)">
   <path id="svg_8" fill-rule=" nonzero" fill=" rgb(118,91,65)" stroke-miterlimit="4" stroke-linejoin=" miter" stroke-dashoffset="0" stroke-dasharray=" none" stroke-width="3" stroke=" rgb(133,107,71)" stroke-linecap=" butt" d="m-58.70716,76.95717l-80.75,0l0,-80.75l80.75,0l0,80.75zm-78.75,-2l76.75,0l0,-76.75l-76.75,0l0,76.75z" vector-effect="non-scaling-stroke"/>
  </g>
  <g id="svg_9" transform="matrix(0 0 0 0 355.13 -22.15)">
   <g id="svg_10"/>
  </g>
  <g id="svg_11" transform="matrix(0 0 0 0 355.13 -22.15)">
   <g id="svg_12"/>
  </g>
  <g id="svg_13" transform="matrix(0 0 0 0 355.13 -22.15)">
   <g id="svg_14"/>
  </g>
  <g id="svg_15" transform="matrix(0 0 0 0 355.13 -22.15)">
   <g id="svg_16"/>
  </g>
  <g id="svg_17" transform="matrix(0 0 0 0 355.13 -22.15)">
   <g id="svg_18"/>
  </g>
  <g id="svg_19" transform="matrix(0 0 0 0 355.13 -22.15)">
   <g id="svg_20"/>
  </g>
  <g id="svg_21" transform="matrix(0 0 0 0 355.13 -22.15)">
   <g id="svg_22"/>
  </g>
  <g id="svg_23" transform="matrix(0 0 0 0 355.13 -22.15)">
   <g id="svg_24"/>
  </g>
  <g id="svg_25" transform="matrix(0 0 0 0 355.13 -22.15)">
   <g id="svg_26"/>
  </g>
  <g id="svg_27" transform="matrix(0 0 0 0 355.13 -22.15)">
   <g id="svg_28"/>
  </g>
  <g id="svg_29" transform="matrix(0 0 0 0 355.13 -22.15)">
   <g id="svg_30"/>
  </g>
  <g id="svg_31" transform="matrix(0 0 0 0 355.13 -22.15)">
   <g id="svg_32"/>
  </g>
  <g id="svg_33" transform="matrix(0 0 0 0 355.13 -22.15)">
   <g id="svg_34"/>
  </g>
  <g id="svg_35" transform="matrix(0 0 0 0 355.13 -22.15)">
   <g id="svg_36"/>
  </g>
  <g id="svg_37" transform="matrix(0 0 0 0 355.13 -22.15)">
   <g id="svg_38"/>
  </g>
  <g id="svg_39" transform="matrix(0 0 0 0 355.13 -22.15)">
   <g id="svg_40"/>
  </g>
  <g id="svg_41" transform="matrix(0 0 0 0 355.13 -22.15)">
   <g id="svg_42"/>
  </g>
  <g id="svg_43" transform="matrix(0 0 0 0 355.13 -22.15)">
   <g id="svg_44"/>
  </g>
  <g id="svg_45" transform="matrix(0 0 0 0 355.13 -22.15)">
   <g id="svg_46"/>
  </g>
 </g>
</svg>