<svg id="visual" viewBox="0 0 900 600" width="900" height="600" xmlns="http://www.w3.org/2000/svg" xmlns:xlink="http://www.w3.org/1999/xlink" version="1.1"><path d="M0 380L129 358L257 376L386 430L514 442L643 385L771 349L900 426L900 601L771 601L643 601L514 601L386 601L257 601L129 601L0 601Z" fill="#212223"></path><path d="M0 399L129 454L257 468L386 419L514 393L643 412L771 458L900 429L900 601L771 601L643 601L514 601L386 601L257 601L129 601L0 601Z" fill="#4d5354"></path><path d="M0 503L129 472L257 499L386 477L514 477L643 488L771 471L900 489L900 601L771 601L643 601L514 601L386 601L257 601L129 601L0 601Z" fill="#7f8987"></path><path d="M0 520L129 487L257 500L386 487L514 524L643 515L771 525L900 532L900 601L771 601L643 601L514 601L386 601L257 601L129 601L0 601Z" fill="#bac3ba"></path><path d="M0 560L129 569L257 560L386 534L514 545L643 529L771 538L900 557L900 601L771 601L643 601L514 601L386 601L257 601L129 601L0 601Z" fill="#fffef0"></path></svg>